<?xml version="1.0" encoding="UTF-8"?> <!-- Creator: CorelDRAW 2020 (64-Bit) --> <svg xmlns="http://www.w3.org/2000/svg" xmlns:xlink="http://www.w3.org/1999/xlink" xmlns:xodm="http://www.corel.com/coreldraw/odm/2003" xml:space="preserve" width="55.0478mm" height="68.6766mm" style="shape-rendering:geometricPrecision; text-rendering:geometricPrecision; image-rendering:optimizeQuality; fill-rule:evenodd; clip-rule:evenodd" viewBox="0 0 832.84 1039.04"> <defs> <style type="text/css"> <![CDATA[ .fil2 {fill:#727271} .fil0 {fill:#595454;fill-rule:nonzero} .fil1 {fill:#4D4A48;fill-rule:nonzero} ]]> </style> </defs> <g id="Слой_x0020_1"> <metadata id="CorelCorpID_0Corel-Layer"></metadata> <g id="_1956630311328"> <path class="fil0" d="M52.07 47.9c0.03,0 0.03,-0.05 0,-0.05 -0.04,0 -0.04,0.05 0,0.05l0 0z"></path> <path class="fil0" d="M8.01 94.14c-2.42,89.66 0.42,179.64 1.03,269.32 0.61,89.75 -0.45,179.58 1.13,269.32 0.05,2.9 4.51,2.91 4.52,0 0.47,-89.75 -1.68,-179.56 -2.18,-269.32 -0.49,-89.68 1.24,-179.7 -2.27,-269.32 -0.05,-1.43 -2.19,-1.44 -2.23,0l0 0z"></path> <path class="fil0" d="M2.99 102.25c112.35,-9.92 224.54,-21.52 336.77,-32.8 112.21,-11.27 224.73,-20.09 336.77,-32.82 6.61,-0.75 6.81,-11.13 0,-10.52 -112.41,10.18 -224.5,24.29 -336.77,35.93 -112.3,11.64 -224.62,22.95 -336.77,35.95 -2.68,0.31 -2.77,4.51 0,4.27l0 0z"></path> <path class="fil0" d="M13.5 635.26c108.43,11.42 218.53,13.18 327.39,19.31 109.12,6.14 218.23,13.1 327.38,18.5 6.82,0.34 6.78,-10.19 0,-10.58 -109.07,-6.25 -218.26,-10.95 -327.38,-16.46 -108.82,-5.5 -218.42,-15.49 -327.39,-15.65 -3.21,-0.01 -3.06,4.57 0,4.89l0 0z"></path> <path class="fil0" d="M678.13 28.82c-4.68,107.43 -4.09,215.23 -4.86,322.75 -0.77,107.59 -1.04,215.2 0.61,322.77 0.07,4.54 7.08,4.55 7.05,0 -0.44,-107.59 -1.14,-215.19 -0.59,-322.77 0.55,-107.59 4.23,-215.18 4.28,-322.75 0,-4.2 -6.31,-4.17 -6.5,0l0 0z"></path> <path class="fil0" d="M2.09 84.66c-0.92,4.16 -0.64,8.56 -0.97,12.8 -0.32,4.2 -1.43,8.59 -0.58,12.74 0.14,0.71 1.26,0.86 1.58,0.2 1.79,-3.64 1.69,-7.97 1.93,-11.97 0.26,-4.51 0.81,-9.32 -0.17,-13.76 -0.2,-0.89 -1.6,-0.89 -1.79,0l0 0z"></path> <path class="fil0" d="M1.7 88.3c225.34,-21.94 449.95,-54.46 674.72,-81.58 4.23,-0.51 4.25,-7.22 0,-6.68 -224.91,28.31 -450.97,51.38 -675.18,84.86 -1.92,0.28 -1.48,3.59 0.46,3.41l0 0z"></path> <path class="fil0" d="M677.15 2.83c-2.83,5.98 -2.99,12.16 -3.1,18.7 -0.1,6.45 -1.52,13.77 1.49,19.64 0.77,1.49 3.19,1.49 3.95,0 3.01,-5.87 1.59,-13.2 1.49,-19.64 -0.1,-6.52 -0.27,-12.72 -3.1,-18.7 -0.13,-0.28 -0.61,-0.28 -0.75,0l0 0z"></path> <path class="fil0" d="M679.84 1.48c-2.43,3.18 -2.32,8.26 -2.32,12.13 0,4.38 0.92,8 2.64,12.01 0.16,0.38 0.76,0.18 0.75,-0.2 -0.15,-4.2 -0.3,-8.46 -0.29,-12.66 0.01,-3.71 1.19,-7.52 0.3,-11.13 -0.13,-0.54 -0.79,-0.51 -1.07,-0.14l0 0z"></path> <path class="fil0" d="M674.37 3.06c-0.58,15.02 -2.46,31.5 0.1,46.37 0.1,0.61 1.16,0.63 1.25,0 2.13,-14.96 -0.22,-31.37 -1.22,-46.37 -0.01,-0.08 -0.12,-0.08 -0.12,0l0 0z"></path> <path class="fil0" d="M4.58 104.74c22.26,-3.75 45.41,-7.95 67.19,-13.83 0.93,-0.25 0.78,-1.83 -0.24,-1.73 -22.34,2.01 -45.95,7.61 -67.27,14.43 -0.73,0.24 -0.43,1.26 0.31,1.14l0 0z"></path> <path class="fil0" d="M5.46 105.12c19.45,-0.19 39.32,-4.74 58.54,-7.57 23.68,-3.48 47.66,-5.63 71.18,-10.08 0.86,-0.16 0.66,-1.54 -0.2,-1.52 -21.54,0.58 -43.02,4.15 -64.32,7.25 -21.47,3.13 -44.52,4.79 -65.33,10.94 -0.53,0.15 -0.44,0.98 0.13,0.97l0 0z"></path> <path class="fil0" d="M678.24 0.98c2.66,4.44 6.44,8.17 9.76,12.11 3.6,4.26 6.62,9.78 10.9,13.32 0.49,0.4 1.48,0.04 1.19,-0.69 -1.83,-4.71 -6.11,-8.99 -9.33,-12.82 -3.66,-4.36 -7.46,-9.05 -12.31,-12.12 -0.13,-0.09 -0.29,0.08 -0.21,0.21l0 0z"></path> <path class="fil0" d="M673.19 29.86c5.96,5.91 11.7,12.05 18.09,17.53 0.9,0.77 2.18,-0.46 1.31,-1.31 -6.05,-5.89 -12.7,-11.06 -19.15,-16.48 -0.18,-0.15 -0.43,0.09 -0.26,0.26l0 0z"></path> <path class="fil0" d="M692.13 47.81c-0.92,-0.49 -1.37,-1.33 -2.37,-1.74 -1.23,-0.49 -2.76,-0.65 -4.06,-0.83 -2.41,-0.33 -5.2,-0.69 -7.44,0.4 -0.92,0.45 -0.63,1.87 0.28,2.12 2.2,0.61 4.69,0.12 6.97,0.27 1.26,0.08 2.51,0.4 3.76,0.46 0.94,0.04 1.85,-0.42 2.76,-0.33 0.19,0.02 0.25,-0.26 0.1,-0.35l0 0z"></path> <path class="fil0" d="M682.93 40.23c0.56,-0.43 -0.96,-0.27 -0.82,-0.29 -0.29,0.04 -0.74,0.33 -0.98,0.48 -0.8,0.49 -1.57,1.16 -2.25,1.79 -0.66,0.62 -1.32,1.28 -1.95,1.94 -0.25,0.27 -0.48,0.53 -0.68,0.83 -0.1,0.15 -0.2,0.46 -0.18,0.64 -0.07,-0.47 0.36,-0.77 0.7,-0.86 0.46,0.46 0.92,0.92 1.39,1.39 -0.13,0.52 0.14,-0.55 0.14,-0.69 0.02,-0.63 -0.6,-1 -1.17,-0.89 -0.44,0.08 -0.79,0.34 -1.04,0.71 -0.52,0.77 0.19,1.64 0.98,1.7 0.2,0.02 0.96,-0.29 0.48,-0.15 -0.57,0.16 0.31,-0.05 0.43,-0.12 0.2,-0.11 0.36,-0.25 0.54,-0.38 0.73,-0.58 1.37,-1.35 2,-2.02 0.71,-0.77 1.44,-1.63 1.95,-2.54 0.29,-0.52 0.29,-1.24 0.58,-1.66 0.11,-0.16 -0.04,-0.38 -0.21,-0.38 -0.09,0 -0.16,0.04 -0.21,0.1 -0.18,0.19 0.07,0.57 0.3,0.39l0 0z"></path> <path class="fil0" d="M680.75 40.48c0.36,0.6 0.12,1.41 0.52,2.06 0.34,0.53 0.87,0.95 1.37,1.32 1.11,0.85 2.34,1.33 3.69,1.61 2.04,0.43 2.91,-2.71 0.86,-3.13 -1.09,-0.23 -2.12,-0.61 -3.1,-1.16 -0.41,-0.23 -0.79,-0.56 -1.21,-0.76 -0.41,-0.2 -1.21,-0.13 -1.49,-0.45 -0.32,-0.36 -0.9,0.1 -0.66,0.5l0 0z"></path> <path class="fil0" d="M676.67 35.31c1.59,2.54 3.21,4.88 5.43,6.96 1.57,1.48 4.03,4.1 6.37,3.58 0.47,-0.11 0.66,-0.6 0.58,-1.03 -0.4,-2.18 -3.53,-3.63 -5.13,-4.9 -2.13,-1.7 -4.34,-3.45 -6.3,-5.35 -0.48,-0.47 -1.32,0.13 -0.94,0.73l0 0z"></path> <path class="fil0" d="M697.76 22.85c-0.75,9.19 -0.81,18.5 -0.9,27.72 -0.02,2.29 3.58,2.3 3.56,0 -0.09,-9.22 -0.14,-18.53 -0.9,-27.72 -0.09,-1.13 -1.67,-1.14 -1.76,0l0 0z"></path> <path class="fil0" d="M698.23 52.42c-5.05,-8.58 -15.59,-15.55 -25.05,-18.23 -0.44,-0.12 -0.69,0.5 -0.31,0.74 4.4,2.7 8.97,5.16 13.19,8.14 4.2,2.96 7.88,6.52 12.07,9.46 0.07,0.05 0.15,-0.04 0.11,-0.11l0 0z"></path> <path class="fil0" d="M676.96 35.37c6.05,5.4 12.05,10.77 18.37,15.87 1.09,0.87 2.65,-0.65 1.56,-1.55 -6.35,-5.2 -12.89,-10.02 -19.47,-14.9 -0.34,-0.25 -0.76,0.3 -0.45,0.58l0 0z"></path> <path class="fil0" d="M698.94 49.62c-6.14,-0.91 -12.25,-2.06 -18.4,-2.91 -1.99,-0.27 -2.84,2.76 -0.84,3.04 6.29,0.86 12.62,1.44 18.91,2.24 1.33,0.17 1.67,-2.17 0.32,-2.37l0 0z"></path> <path class="fil0" d="M685.78 46.04c-1.16,-0.64 -1.56,-2.12 -1.94,-3.26 -0.42,-1.29 -0.72,-1.95 -2.04,-2.5 -0.36,-0.15 -0.81,0.03 -1.07,0.28 -1.41,1.35 -0.79,2.95 0.3,4.28 1.06,1.3 2.68,1.62 4.12,2.27 0.71,0.32 1.33,-0.67 0.62,-1.07l0 0z"></path> <path class="fil0" d="M697.61 49.47c-5.87,-1.85 -11.27,-2.57 -17.44,-1.85 -2.22,0.26 -2.26,3.77 0,3.53 5.63,-0.62 11.6,-0.76 17.22,-0.03 0.97,0.12 1.08,-1.37 0.22,-1.64l0 0z"></path> <path class="fil0" d="M677.38 50.93c3.07,0.82 6.23,0.98 9.39,1.28 3.06,0.29 6.38,1.09 9.39,0.36 0.48,-0.11 0.64,-0.91 0.14,-1.13 -2.54,-1.12 -5.36,-1.02 -8.12,-1.25 -3.53,-0.31 -7.09,-0.82 -10.64,-0.54 -0.7,0.05 -0.92,1.08 -0.17,1.28l0 0z"></path> <path class="fil0" d="M5.45 109.09c44.91,-2.9 89.84,-9.99 134.62,-14.73 44.88,-4.75 90.07,-7.88 134.82,-13.64 0.37,-0.05 0.4,-0.62 0,-0.6 -46.27,2.65 -92.58,8.65 -138.66,13.58 -43.46,4.66 -87.71,7.78 -130.78,15.32 -0.03,0 -0.03,0.06 0.01,0.06l0 0z"></path> <path class="fil0" d="M282.73 78.09c127.65,-10.3 255.24,-21.96 382.54,-36.01 0.92,-0.1 0.94,-1.55 0,-1.46 -127.41,13.31 -254.87,25.76 -382.54,36.34 -0.71,0.06 -0.72,1.19 0,1.13l0 0z"></path> <path class="fil0" d="M682.21 6.33c-1.74,1.47 -3.49,3.49 -4.63,5.47 -0.16,0.28 0.21,0.55 0.44,0.34 1.65,-1.51 3.29,-3.71 4.33,-5.69 0.05,-0.1 -0.06,-0.18 -0.14,-0.11l0 0z"></path> <path class="fil0" d="M685.46 7.54c-1.76,1.08 -3.48,2.1 -5.08,3.41 -1.34,1.09 -3.18,2.32 -3.75,3.99 -0.08,0.24 0.18,0.52 0.43,0.43 1.56,-0.58 2.73,-2.19 3.93,-3.31 1.53,-1.44 3.04,-2.95 4.65,-4.29 0.13,-0.11 -0.04,-0.32 -0.18,-0.23l0 0z"></path> <path class="fil0" d="M687.47 9.54c-1.92,1.11 -3.66,2.54 -5.42,3.88 -1.6,1.21 -3.45,2.41 -4.72,3.96 -0.48,0.59 0.11,1.44 0.82,1.07 1.78,-0.91 3.35,-2.48 4.86,-3.77 1.69,-1.45 3.45,-2.85 4.94,-4.5 0.3,-0.33 -0.08,-0.87 -0.49,-0.63l0 0z"></path> <path class="fil0" d="M689.46 12.24c-2.57,0.64 -4.96,2.41 -7.02,4.02 -1.71,1.34 -4.54,3.22 -5,5.44 -0.05,0.26 0.16,0.54 0.45,0.45 2.06,-0.69 3.62,-3.09 5.3,-4.46 2.12,-1.74 4.61,-3.01 6.67,-4.8 0.31,-0.27 -0.02,-0.75 -0.38,-0.66l0 0z"></path> <path class="fil0" d="M691.79 14.98c-3.41,0.85 -6.55,2.83 -9.43,4.8 -2.53,1.72 -5.77,3.68 -7.21,6.43 -0.2,0.38 0.19,0.71 0.55,0.56 2.91,-1.28 5.34,-4.04 7.96,-5.86 2.72,-1.88 5.73,-3.37 8.37,-5.36 0.27,-0.2 0.12,-0.66 -0.24,-0.57l0 0z"></path> <path class="fil0" d="M692.58 17.63c-3.11,1.82 -6,3.97 -8.9,6.1 -2.58,1.91 -5.46,3.72 -7.66,6.06 -0.54,0.58 0.14,1.41 0.83,1.07 3.18,-1.58 6,-4.09 8.82,-6.24 2.58,-1.97 5.18,-3.94 7.56,-6.16 0.45,-0.42 -0.13,-1.14 -0.65,-0.84l0 0z"></path> <path class="fil0" d="M694.5 20.55c-3.03,1.67 -5.75,3.86 -8.43,6.02 -2.56,2.06 -5.81,4.19 -7.51,7.04 -0.23,0.4 0.22,0.79 0.6,0.6 2.85,-1.39 5.19,-4.12 7.61,-6.15 2.73,-2.31 5.63,-4.43 8.22,-6.9 0.33,-0.31 -0.09,-0.84 -0.48,-0.62l0 0z"></path> <path class="fil0" d="M697.28 23.21c-3.7,1.72 -7.09,4.12 -10.27,6.66 -3.06,2.44 -6.68,5.12 -8.68,8.53 -0.28,0.48 0.3,1.13 0.8,0.79 2.98,-2.02 5.37,-4.96 8.16,-7.27 3.37,-2.8 7.04,-5.16 10.56,-7.74 0.59,-0.43 0.1,-1.29 -0.57,-0.98l0 0z"></path> <path class="fil0" d="M698.32 25.31c-2.54,1.94 -4.94,4.08 -7.34,6.21 -2.34,2.08 -5.09,4.12 -6.81,6.75 -0.33,0.5 0.3,1.03 0.77,0.77 2.61,-1.41 4.76,-3.84 6.91,-5.87 2.42,-2.28 4.86,-4.59 7.09,-7.06 0.37,-0.41 -0.14,-1.18 -0.63,-0.81l0 0z"></path> <path class="fil0" d="M698.74 30.81c-2.49,1.59 -4.74,3.56 -6.93,5.53 -2.15,1.93 -4.66,3.86 -6.16,6.36 -0.21,0.35 0.2,0.7 0.53,0.53 2.61,-1.31 4.75,-3.68 6.84,-5.67 2.13,-2.03 4.24,-4.1 6.01,-6.45 0.13,-0.18 -0.12,-0.41 -0.29,-0.3l0 0z"></path> <path class="fil0" d="M697.48 36.41c-2.13,1.32 -4.01,2.43 -5.72,4.33 -1.37,1.52 -3.32,3.62 -3.68,5.68 -0.11,0.64 0.59,1.1 1.1,0.64 1.52,-1.38 2.43,-3.53 3.8,-5.11 1.47,-1.67 3.11,-3.59 4.87,-4.92 0.36,-0.28 0.04,-0.89 -0.37,-0.63l0 0z"></path> <path class="fil0" d="M696.63 42.11c-2.3,0.13 -5.3,1.96 -5.23,4.55 0.01,0.37 0.42,0.5 0.69,0.28 0.79,-0.64 1.26,-1.49 1.99,-2.18 0.8,-0.77 1.78,-1.37 2.74,-1.91 0.34,-0.19 0.2,-0.76 -0.2,-0.74l0 0z"></path> <path class="fil0" d="M696.45 44.43c-1.14,0.92 -2.59,1.71 -3.02,3.17 -0.08,0.27 0.18,0.52 0.45,0.45 1.47,-0.37 2.32,-1.81 3.28,-2.9 0.43,-0.5 -0.21,-1.12 -0.71,-0.71l0 0z"></path> <path class="fil0" d="M696.5 44.59c-0.33,1.32 -0.71,2.64 -0.92,3.98 -0.03,0.19 0.23,0.28 0.3,0.08 0.45,-1.28 0.72,-2.63 1.06,-3.94 0.07,-0.28 -0.36,-0.4 -0.43,-0.12l0 0z"></path> <path class="fil0" d="M672.43 42.67c-6.26,138 -10.08,277.73 -5.57,415.83 0.02,0.45 0.69,0.45 0.7,0 2.84,-138.57 2.74,-277.23 5.58,-415.83 0.01,-0.46 -0.69,-0.46 -0.71,0l0 0z"></path> <path class="fil0" d="M669.09 464.51c-6.76,70.08 -6.03,141.54 -2.51,211.79 0.05,1.07 1.72,1.07 1.67,0 -3.29,-70.82 -1.29,-141.01 1.21,-211.79 0.01,-0.25 -0.35,-0.23 -0.37,0l0 0z"></path> <path class="fil0" d="M11.46 113.96c-0.51,27.63 -0.37,55.53 0.62,83.15 0.01,0.29 0.44,0.29 0.45,0 0.54,-27.63 0.23,-55.53 -0.73,-83.15 -0,-0.22 -0.34,-0.22 -0.34,0l0 0z"></path> <path class="fil0" d="M658.39 622.64c-12.44,9.15 -24.6,21.93 -32.05,35.55 -0.09,0.17 0.14,0.29 0.26,0.15 9.89,-13.1 19.6,-24.62 31.95,-35.5 0.11,-0.1 -0.04,-0.29 -0.16,-0.2l0 0z"></path> <path class="fil0" d="M660.48 628.77c-0.67,0.65 -1.33,1.3 -2.01,1.95 -0.09,0.09 0.05,0.24 0.14,0.14 0.65,-0.67 1.3,-1.34 1.95,-2.01 0.05,-0.06 -0.03,-0.15 -0.09,-0.09l0 0z"></path> <path class="fil0" d="M659.35 628.03c-8.25,11.32 -18.65,20.92 -26.89,32.2 -0.11,0.15 0.12,0.31 0.24,0.19 10.05,-9.76 18.12,-21.42 28.19,-31.2 0.99,-0.96 -0.68,-2.38 -1.54,-1.19l0 0z"></path> <path class="fil0" d="M664.04 634.35c-8.57,9.35 -16.49,19.42 -23.26,30.16 -0.15,0.25 0.23,0.46 0.39,0.22 7.21,-10.47 14.74,-20.59 22.95,-30.3 0.05,-0.05 -0.03,-0.13 -0.08,-0.08l0 0z"></path> <path class="fil0" d="M662.54 650.63c-4.09,3.06 -8.04,6.99 -10.29,11.65 -0.05,0.11 0.09,0.19 0.16,0.1 2.95,-4.43 5.91,-8.4 10.19,-11.65 0.05,-0.04 0,-0.14 -0.06,-0.1l0 0z"></path> <path class="fil0" d="M11.67 108.1c0.16,-0.35 1.57,-2.63 0.83,-2.97 -0.61,-0.28 -1.49,1.73 -1.68,2.05 -1.16,1.95 -2.19,3.99 -3.25,6 -0.72,1.36 -2.13,3.18 -2.34,4.72 -0.04,0.31 0.38,0.39 0.57,0.23 0.85,-0.72 1.36,-2.35 1.86,-3.32 0.84,-1.63 1.68,-3.27 2.54,-4.9 0.62,-1.17 1.62,-2.5 2.01,-3.76 0.15,-0.49 0.25,-0.85 -0.19,-0.36 -0.38,0.43 -0.5,1.62 -0.69,2.15 -0.08,0.21 0.26,0.35 0.35,0.15l0 0z"></path> <path class="fil0" d="M23.02 105.72c-6.07,7.13 -12.2,14.34 -17.83,21.82 -0.07,0.1 0.09,0.22 0.17,0.13 6.22,-6.99 12.08,-14.4 17.86,-21.74 0.11,-0.15 -0.08,-0.36 -0.21,-0.21l0 0z"></path> <path class="fil0" d="M31.21 105.93c-9.34,8.78 -18.88,19.58 -24.98,30.94 -0.1,0.18 0.16,0.41 0.3,0.23 8.27,-10.44 15.93,-21.03 24.87,-30.97 0.12,-0.13 -0.06,-0.32 -0.19,-0.2l0 0z"></path> <path class="fil0" d="M48.06 105.42c-14.35,13.28 -28.44,27.57 -40.39,43.07 -0.1,0.12 0.11,0.28 0.22,0.16 13.23,-14.63 26.17,-29.3 40.22,-43.19 0.03,-0.03 -0.02,-0.07 -0.04,-0.05l0 0z"></path> <path class="fil0" d="M62.08 101.67c-16.86,17.43 -33.65,35.12 -49.8,53.19 -0.17,0.19 0.1,0.47 0.28,0.28 16.93,-17.36 33.43,-35.32 49.66,-53.33 0.08,-0.1 -0.05,-0.24 -0.14,-0.15l0 0z"></path> <path class="fil0" d="M72.26 109.84c-19.14,16.45 -36.96,34.82 -51.87,55.22 -0.08,0.11 0.1,0.24 0.18,0.14 16.02,-19.74 32.82,-38.28 51.78,-55.26 0.07,-0.06 -0.03,-0.16 -0.1,-0.1l0 0z"></path> <path class="fil0" d="M658.28 604.78c-14.13,13.45 -28.36,27.24 -41.59,41.57 -0.21,0.23 0.11,0.55 0.34,0.34 14.31,-13.27 28.06,-27.53 41.47,-41.7 0.14,-0.15 -0.07,-0.36 -0.22,-0.22l0 0z"></path> <path class="fil0" d="M656.33 596.87c-21.5,18.39 -41.86,39.28 -59.15,61.69 -0.11,0.14 0.13,0.33 0.25,0.2 19.12,-21.29 38.45,-41.87 59.06,-61.74 0.1,-0.1 -0.05,-0.24 -0.15,-0.15l0 0z"></path> <path class="fil0" d="M655.43 584.09c-22.27,21.28 -44.13,43.03 -65.98,64.75 -0.31,0.31 0.17,0.8 0.5,0.49 22.02,-21.53 44.08,-43.08 65.68,-65.04 0.13,-0.13 -0.07,-0.32 -0.2,-0.2l0 0z"></path> <path class="fil0" d="M292.65 648.63c-1.99,48.91 1.07,98.26 1.89,147.2 0.83,49.03 0.56,98.2 2.64,147.19 0.12,2.96 4.59,2.98 4.61,0 0.29,-49.03 -1.77,-98.17 -2.72,-147.19 -0.96,-48.94 0.29,-98.38 -3.48,-147.2 -0.14,-1.87 -2.86,-1.91 -2.94,0l0 0z"></path> <path class="fil0" d="M297.89 946.19c2.11,4.07 6.48,6.01 10.97,5.77 3.13,-0.17 9.74,-2.25 9.36,-6.32 -0.05,-0.56 -0.57,-1.14 -1.2,-0.91 -1.24,0.46 -1.73,1.33 -2.75,2.18 -1.31,1.09 -2.89,1.77 -4.58,2.04 -3.74,0.59 -7.69,-0.77 -9.98,-3.83 -0.8,-1.06 -2.46,-0.17 -1.82,1.06l0 0z"></path> <path class="fil0" d="M321.08 647.13c-0.88,1.02 -1.63,1.46 -1.64,2.8 0,0.33 0.43,0.65 0.73,0.42 1.08,-0.83 1,-1.63 1.3,-2.99 0.04,-0.21 -0.23,-0.41 -0.39,-0.22l0 0z"></path> <path class="fil0" d="M319.1 648.45c-3.49,23.15 -0.81,47.78 -0.49,71.15 0.35,24.97 0.75,49.94 1.09,74.92 0.69,51.25 0.96,102.51 1.86,153.76 0.05,2.8 4.39,2.81 4.36,0 -0.46,-51.26 -1.55,-102.51 -2.22,-153.76 -0.33,-24.97 -0.59,-49.94 -0.9,-74.92 -0.29,-23.35 1.74,-48.13 -2.37,-71.15 -0.11,-0.66 -1.24,-0.67 -1.34,0l0 0z"></path> <path class="fil0" d="M323.29 946.63c-3.44,4.64 -8.85,7.34 -14.64,6.23 -5.37,-1.02 -7.64,-4.59 -11.07,-8.29 -0.82,-0.88 -2.1,0.06 -1.89,1.1 1.2,5.83 7.95,9.65 13.51,10.18 6.54,0.63 12.47,-2.72 15.98,-8.11 0.78,-1.21 -1.07,-2.21 -1.89,-1.11l0 0z"></path> <path class="fil0" d="M323.81 947.52c-4.21,-0.25 -8.05,2.52 -12.32,2.75 -4.63,0.25 -7.12,-2.11 -10.81,-4.26 -0.51,-0.3 -1.36,0.07 -1.28,0.74 1.26,10.63 20.21,7.43 24.62,1.15 0.11,-0.17 -0.04,-0.36 -0.21,-0.37l0 0z"></path> <path class="fil0" d="M299.68 948.6c4.62,6.51 18.87,6.32 21.94,-1.71 0.25,-0.65 -0.57,-1.12 -1.09,-0.84 -3.28,1.74 -5.86,3.96 -9.72,4.36 -3.75,0.38 -7.21,-0.88 -10.58,-2.36 -0.33,-0.14 -0.81,0.18 -0.55,0.55l0 0z"></path> <path class="fil0" d="M322.22 941.35c-3.4,3.52 -7.58,6.49 -12.72,6.2 -5.28,-0.3 -8.56,-3.86 -11.9,-7.47 -0.44,-0.46 -1.13,0.03 -1.01,0.59 2.58,12.54 22.11,12.28 26.43,1.15 0.18,-0.46 -0.49,-0.79 -0.8,-0.46l0 0z"></path> <path class="fil0" d="M293.51 770.17c-34.25,82.96 -64.53,168.13 -95.24,252.47 -0.72,1.98 2.39,2.79 3.13,0.87 32.29,-83.71 65.47,-167.76 94.17,-252.76 0.45,-1.33 -1.55,-1.8 -2.06,-0.57l0 0z"></path> <path class="fil0" d="M300.25 800.41c-17.33,34.33 -28.59,72.62 -43.04,108.3 -16.38,40.46 -33.98,80.33 -51.57,120.26 -1.03,2.32 2.39,4.37 3.45,2.02 16.56,-36.58 31.94,-73.77 47.06,-110.97 15.72,-38.7 34.96,-78.68 44.73,-119.34 0.09,-0.36 -0.44,-0.62 -0.62,-0.27l0 0z"></path> <path class="fil0" d="M323.08 774.51c30.79,84.26 66.02,167.47 100.36,250.35 0.78,1.89 3.91,1.1 3.13,-0.86 -32.81,-83.64 -65.21,-168.13 -101.54,-250.31 -0.49,-1.09 -2.36,-0.31 -1.95,0.83l0 0z"></path> <path class="fil0" d="M318.52 804.59c10.17,38.18 29.13,75.42 44.83,111.68 16.88,39.01 34.11,77.99 52.59,116.27 1.12,2.32 4.53,0.29 3.45,-2.01 -17.57,-37.36 -35.19,-74.62 -51.71,-112.47 -16.33,-37.42 -29.25,-77.77 -48.53,-113.73 -0.19,-0.34 -0.72,-0.11 -0.62,0.26l0 0z"></path> <path class="fil0" d="M278.38 861.06c-8.15,25.87 -10.37,54.68 -14.77,81.44 -0.3,1.81 2.48,2.59 2.77,0.76 4.38,-26.84 11.51,-54.98 12.04,-82.2 0,-0.03 -0.04,-0.03 -0.05,-0l0 0z"></path> <path class="fil0" d="M263.68 943.01c0.62,4.78 5.29,8.2 10.04,7.65 1.51,-0.18 1.25,-2.29 -0.28,-2.08 -3.86,0.54 -7.15,-2.21 -8.18,-5.79 -0.23,-0.84 -1.7,-0.72 -1.58,0.21l0 0z"></path> <path class="fil0" d="M273.59 949.94c11.31,-35.02 18.97,-71.99 24.78,-108.29 0.27,-1.7 -2.29,-2.46 -2.62,-0.73 -6.96,36.5 -15.61,72.35 -23.8,108.57 -0.24,1.07 1.3,1.49 1.64,0.45l0 0z"></path> <path class="fil0" d="M296.57 825.68c-3.22,5.19 -5.58,10.9 -8.15,16.42 -2.25,4.83 -4.86,9.61 -6.45,14.7 -0.12,0.38 0.42,0.58 0.62,0.26 3.26,-5.11 5.49,-10.98 8.04,-16.49 2.25,-4.85 4.68,-9.64 6.33,-14.73 0.08,-0.24 -0.27,-0.37 -0.39,-0.17l0 0z"></path> <path class="fil0" d="M296.08 837.35c-6.42,9.78 -13.18,20.55 -17.88,31.28 -0.15,0.35 0.28,0.6 0.51,0.29 6.89,-9.46 12.77,-20.74 17.98,-31.22 0.2,-0.4 -0.36,-0.73 -0.6,-0.35l0 0z"></path> <path class="fil0" d="M296.97 846.28c-3.78,4.59 -6.89,9.71 -10.12,14.68 -3.64,5.61 -7.91,11.17 -10.71,17.24 -0.15,0.34 0.28,0.76 0.56,0.43 3.88,-4.48 6.78,-9.85 9.97,-14.83 3.64,-5.68 7.55,-11.29 10.51,-17.36 0.06,-0.12 -0.11,-0.28 -0.21,-0.16l0 0z"></path> <path class="fil0" d="M294.44 862.11c-7.03,8.07 -13.75,16.42 -20.16,25 -0.54,0.72 0.68,1.68 1.26,0.98 6.79,-8.27 13.31,-16.79 19.46,-25.54 0.23,-0.33 -0.29,-0.74 -0.56,-0.43l0 0z"></path> <path class="fil0" d="M290.06 874.84c-6.78,5.41 -12.77,12.68 -17.01,20.26 -0.57,1.01 0.89,1.83 1.54,0.9 5,-7.22 10.29,-13.97 15.91,-20.72 0.26,-0.31 -0.12,-0.68 -0.44,-0.44l0 0z"></path> <path class="fil0" d="M288.06 884.59c-6.37,4.17 -12.55,11.38 -15.29,18.53 -0.37,0.98 1.05,1.39 1.57,0.66 2.39,-3.3 4.34,-6.84 6.87,-10.05 2.32,-2.94 4.93,-5.62 7.38,-8.44 0.31,-0.36 -0.09,-0.98 -0.53,-0.69l0 0z"></path> <path class="fil0" d="M285.25 896.2c-3,1.84 -5.56,4.38 -7.93,6.96 -2.1,2.27 -4.77,4.89 -5.81,7.85 -0.27,0.76 0.7,1.12 1.21,0.71 2.49,-2.01 4.23,-5.08 6.42,-7.44 2.24,-2.41 4.73,-4.56 6.96,-6.97 0.53,-0.57 -0.15,-1.54 -0.85,-1.11l0 0z"></path> <path class="fil0" d="M283.95 903.08c-2.81,2.28 -5.4,4.82 -7.97,7.35 -2.3,2.25 -4.99,4.47 -6.62,7.26 -0.23,0.4 0.24,0.87 0.64,0.64 2.8,-1.63 5.02,-4.32 7.28,-6.61 2.53,-2.57 5.08,-5.16 7.36,-7.96 0.39,-0.48 -0.2,-1.07 -0.68,-0.68l0 0z"></path> <path class="fil0" d="M278.65 913.4c-2.28,1.72 -4.37,3.68 -6.41,5.68 -1.93,1.88 -4.51,3.93 -5.64,6.4 -0.19,0.42 0.2,0.8 0.61,0.61 2.5,-1.11 4.56,-3.66 6.47,-5.57 2.02,-2.02 4,-4.08 5.74,-6.35 0.34,-0.45 -0.34,-1.12 -0.78,-0.79l0 0z"></path> <path class="fil0" d="M278.95 920.34c-3.06,1.26 -5.69,3.06 -7.99,5.48 -1.97,2.09 -4.31,4.81 -4.64,7.75 -0.04,0.31 0.41,0.45 0.61,0.25 2,-2.03 3.17,-4.79 5.11,-6.93 2.08,-2.31 4.55,-4.3 7.13,-6.04 0.25,-0.16 0.1,-0.64 -0.21,-0.51l0 0z"></path> <path class="fil0" d="M275.59 927.77c-2.08,2.11 -3.98,4.38 -5.9,6.62 -1.52,1.78 -3.59,3.56 -4.35,5.81 -0.12,0.34 0.29,0.59 0.58,0.44 2.28,-1.2 3.89,-3.87 5.54,-5.81 1.76,-2.07 3.51,-4.13 5.12,-6.31 0.43,-0.59 -0.5,-1.26 -0.98,-0.76l0 0z"></path> <path class="fil0" d="M274.61 933.36c-1.97,2.2 -4.12,4.22 -6.03,6.48 -1.49,1.75 -3.61,3.67 -4.26,5.91 -0.11,0.38 0.3,0.64 0.62,0.48 2.13,-1.06 3.74,-3.64 5.22,-5.47 1.78,-2.2 3.32,-4.57 5.05,-6.8 0.33,-0.42 -0.22,-1.02 -0.6,-0.6l0 0z"></path> <path class="fil0" d="M274.84 937.53c-2.95,2.51 -7.01,6.56 -6.98,10.74 0,0.45 0.59,0.72 0.91,0.37 1.31,-1.4 1.89,-3.27 2.84,-4.92 1.11,-1.94 2.34,-3.94 3.72,-5.71 0.27,-0.35 -0.14,-0.79 -0.49,-0.49l0 0z"></path> <path class="fil0" d="M265.7 940.29c-2.79,2.42 -2.82,7.15 0.45,9.24 2.42,1.55 8.12,1.23 8.36,-2.47 0.04,-0.52 -0.55,-0.73 -0.96,-0.54 -2,0.91 -3.52,2.59 -5.92,1.43 -2.48,-1.2 -2.82,-4.9 -1.2,-6.92 0.41,-0.51 -0.22,-1.17 -0.73,-0.73l0 0z"></path> <path class="fil0" d="M269.72 949.53c-0.25,0.11 -0.5,0.22 -0.75,0.34 -0.42,0.11 -0.22,0.8 0.18,0.65 2.13,-0.77 3.53,-2.13 4.69,-4.12 0.98,-1.69 2.03,-4.21 1.31,-6.15 -0.11,-0.3 -0.61,-0.46 -0.78,-0.1 -0.77,1.67 -0.85,3.53 -1.74,5.2 -0.92,1.72 -2.42,3.25 -3.8,4.61 0.18,0.13 0.35,0.27 0.52,0.41 0.17,-0.22 0.33,-0.45 0.49,-0.67 0.08,-0.08 -0.02,-0.22 -0.12,-0.16l0 0z"></path> <path class="fil1" d="M12.32 107.88c-2.07,2.36 -4.14,4.73 -6.21,7.1 -1.58,1.81 -4.25,3.85 -4.73,6.26 -0.09,0.47 0.31,1.03 0.84,0.84 2.36,-0.83 3.92,-3.62 5.51,-5.47 2.05,-2.39 4.11,-4.77 6.16,-7.16 0.94,-1.08 -0.62,-2.66 -1.57,-1.57l0 0z"></path> <path class="fil1" d="M27.65 110.06c-5.35,4.44 -10.19,9.29 -14.78,14.51 -4.05,4.58 -8.65,9.47 -11.4,14.98 -0.26,0.52 0.38,1.08 0.83,0.64 4.6,-4.6 8.17,-10.27 12.45,-15.19 4.31,-4.94 8.89,-9.67 13.43,-14.41 0.34,-0.35 -0.16,-0.83 -0.52,-0.52l0 0z"></path> <path class="fil1" d="M32.9 120.58c-7.81,6.98 -16.49,13.61 -23.55,21.35 -0.25,0.27 0.08,0.78 0.41,0.53 8.45,-6.25 15.94,-14.23 23.71,-21.32 0.38,-0.35 -0.19,-0.91 -0.57,-0.57l0 0z"></path> <path class="fil1" d="M596.46 628.49c-6.22,7.87 -12.55,15.68 -18.65,23.64 -0.07,0.08 0.07,0.2 0.14,0.11 6.3,-7.81 12.39,-15.8 18.56,-23.7 0.03,-0.04 -0.02,-0.1 -0.05,-0.05l0 0z"></path> <path class="fil1" d="M656.89 567.53c-21.67,22.23 -43.56,44.71 -63.76,68.27 -0.17,0.2 0.1,0.49 0.29,0.29 22.08,-21.83 42.94,-45.27 63.57,-68.47 0.06,-0.07 -0.04,-0.16 -0.1,-0.1l0 0z"></path> <path class="fil1" d="M637.91 41.78c-12.52,11.88 -25.66,23.92 -36.91,37.02 -0.18,0.2 0.09,0.47 0.29,0.29 13.19,-11.14 25.34,-24.18 37.32,-36.61 0.45,-0.46 -0.24,-1.15 -0.71,-0.71l0 0z"></path> <path class="fil1" d="M649.02 42.31c-12.73,13.46 -27.05,26.45 -38.27,41.19 -0.35,0.46 0.38,0.94 0.77,0.59 13.71,-12.42 25.38,-27.79 37.68,-41.6 0.11,-0.12 -0.07,-0.3 -0.18,-0.18l0 0z"></path> <path class="fil1" d="M662.25 45.08c-17.64,12.1 -32.81,28.02 -43.07,46.86 -0.14,0.26 0.24,0.48 0.4,0.23 11.81,-18.14 25.54,-33.73 42.86,-46.77 0.19,-0.14 0.02,-0.46 -0.19,-0.32l0 0z"></path> <path class="fil1" d="M665.17 58.4c-12.87,14.42 -26.26,28.59 -38.25,43.77 -0.18,0.22 0.12,0.55 0.33,0.33 13.41,-13.94 25.62,-29.13 38.16,-43.85 0.14,-0.16 -0.1,-0.41 -0.25,-0.25l0 0z"></path> <path class="fil1" d="M664.92 89.87c-15.13,17.43 -31.42,33.91 -45.88,51.92 -0.19,0.24 0.12,0.58 0.35,0.35 16.05,-16.61 30.35,-34.86 45.73,-52.07 0.12,-0.13 -0.08,-0.33 -0.2,-0.2l0 0z"></path> <path class="fil1" d="M669.85 102.62c-14.33,16.37 -29.33,32.71 -42.2,50.28 -0.17,0.22 0.2,0.49 0.38,0.29 15.04,-15.71 28.49,-33.32 42.12,-50.28 0.17,-0.2 -0.12,-0.5 -0.3,-0.29l0 0z"></path> <path class="fil1" d="M55.18 586.29c1.53,-1.63 3.08,-3.25 4.65,-4.84 0.19,-0.2 -0.09,-0.46 -0.3,-0.3 -17.88,14.54 -36.85,29.86 -51.74,47.53 -0.23,0.28 0.12,0.63 0.39,0.39 9.38,-8 17.86,-17.15 26.92,-25.52 4.3,-3.97 8.64,-7.91 13,-11.81 1.47,-1.32 13.17,-12.43 6.94,-5.59 -0.08,0.09 0.05,0.22 0.13,0.13l0 0z"></path> <path class="fil1" d="M70.39 585.53c-16.8,12.87 -34.63,25.36 -50.16,39.73 -0.2,0.18 0.07,0.54 0.29,0.38 17.57,-11.78 33.84,-26.26 50.23,-39.63 0.26,-0.21 -0.1,-0.68 -0.37,-0.48l0 0z"></path> <path class="fil1" d="M86.07 587.74c-20.2,9.86 -41.5,25.61 -53.2,45.2 -0.24,0.39 0.31,0.83 0.63,0.49 7.63,-8.17 14.35,-16.83 22.82,-24.23 9.23,-8.05 19.45,-14.83 30.12,-20.82 0.42,-0.24 0.05,-0.85 -0.38,-0.64l0 0z"></path> <path class="fil1" d="M94.61 594.15c-16.59,9.42 -33.09,21.69 -45.27,36.49 -0.25,0.31 0.15,0.73 0.44,0.44 14.25,-13.56 28.3,-26.02 45.07,-36.51 0.27,-0.17 0.03,-0.58 -0.25,-0.42l0 0z"></path> <path class="fil1" d="M98.98 603.72c-10.68,10.37 -21.78,20.55 -31.71,31.66 -0.58,0.64 0.31,1.54 0.95,0.95 10.91,-10.14 20.88,-21.44 31.05,-32.31 0.18,-0.2 -0.1,-0.48 -0.29,-0.29l0 0z"></path> <path class="fil1" d="M107.53 609.63c-6.39,7.31 -14.41,14.81 -19.09,23.35 -0.19,0.35 0.25,0.66 0.53,0.41 7.31,-6.35 13.02,-15.86 18.77,-23.61 0.09,-0.12 -0.11,-0.26 -0.2,-0.15l0 0z"></path> <path class="fil1" d="M118.08 620.16c-2.83,2.3 -5.79,4.46 -8.65,6.73 -2.5,1.99 -5.44,3.89 -7.37,6.45 -0.26,0.34 0.22,0.69 0.54,0.54 2.85,-1.43 5.3,-4.04 7.69,-6.12 2.74,-2.39 5.37,-4.89 8.13,-7.25 0.25,-0.21 -0.1,-0.54 -0.34,-0.35l0 0z"></path> <path class="fil1" d="M125.68 625.14c-1.87,1.85 -3.83,3.6 -5.71,5.44 -1.67,1.63 -3.66,3.2 -4.94,5.16 -0.18,0.28 0.19,0.67 0.48,0.48 1.94,-1.32 3.45,-3.35 5.04,-5.06 1.79,-1.93 3.5,-3.93 5.31,-5.84 0.11,-0.12 -0.06,-0.3 -0.18,-0.18l0 0z"></path> <path class="fil1" d="M665.7 73.55c-13.54,13.49 -26.54,27.59 -39.36,41.78 -0.64,0.71 0.39,1.75 1.05,1.05 13.11,-13.94 26.12,-28.05 38.49,-42.64 0.11,-0.13 -0.06,-0.3 -0.18,-0.18l0 0z"></path> <path class="fil1" d="M670.83 116.85c-13.56,17.32 -27.74,34.59 -40.2,52.71 -0.24,0.35 0.3,0.76 0.58,0.45 14.69,-16.22 27.82,-34.67 40.31,-52.62 0.28,-0.41 -0.38,-0.93 -0.69,-0.53l0 0z"></path> <path class="fil1" d="M670.48 136.31c-12.2,12.81 -24.18,26.16 -35.12,40.06 -0.27,0.34 0.17,0.82 0.49,0.49 12.36,-12.67 24.01,-26.3 35.11,-40.08 0.27,-0.33 -0.17,-0.79 -0.48,-0.48l0 0z"></path> <path class="fil1" d="M669.15 156.67c-8.13,6.33 -16.81,14.71 -22.13,23.61 -0.15,0.26 0.2,0.52 0.4,0.31 3.84,-3.74 7.1,-8.11 10.74,-12.06 3.66,-3.96 7.54,-7.7 11.24,-11.62 0.15,-0.17 -0.08,-0.38 -0.25,-0.25l0 0z"></path> <path class="fil1" d="M668.85 168.28c-2.57,2.68 -5.09,5.4 -7.61,8.13 -2.24,2.43 -4.79,4.77 -6.5,7.62 -0.15,0.26 0.18,0.64 0.45,0.44 2.67,-1.95 4.76,-4.69 6.98,-7.13 2.49,-2.75 4.97,-5.52 7.41,-8.33 0.44,-0.5 -0.27,-1.23 -0.74,-0.74l0 0z"></path> <path class="fil1" d="M669.28 180.45c-3.86,2.54 -8.67,4.82 -11.79,8.27 -0.29,0.33 -0.01,1.01 0.48,0.82 4.31,-1.76 8.1,-5.47 11.81,-8.24 0.49,-0.36 0.04,-1.19 -0.5,-0.84l0 0z"></path> <path class="fil1" d="M571.01 52.07c-4.85,5.65 -10.65,10.99 -14.46,17.43 -0.21,0.35 0.26,0.68 0.54,0.43 5.53,-4.99 9.63,-11.75 14.18,-17.59 0.14,-0.18 -0.1,-0.44 -0.26,-0.26l0 0z"></path> <path class="fil1" d="M582.79 53.97c-6.18,3.96 -12.08,10.59 -14.6,17.53 -0.1,0.29 0.31,0.42 0.47,0.2 2.24,-3.27 4.17,-6.7 6.72,-9.77 2.32,-2.8 4.96,-5.23 7.59,-7.72 0.12,-0.12 -0.04,-0.33 -0.18,-0.24l0 0z"></path> <path class="fil1" d="M594.73 50.08c-6.21,6.09 -13.18,13.28 -16.57,21.44 -0.13,0.32 0.37,0.6 0.58,0.34 5.67,-6.98 10.11,-14.84 16.17,-21.6 0.11,-0.12 -0.07,-0.29 -0.18,-0.18l0 0z"></path> <path class="fil1" d="M608.27 51.75c-7.14,5.98 -13.79,13.42 -17.81,21.9 -0.17,0.36 0.31,0.64 0.54,0.31 5.48,-7.74 10.88,-15.12 17.74,-21.74 0.31,-0.3 -0.15,-0.75 -0.48,-0.48l0 0z"></path> <path class="fil1" d="M620.05 47.69c-5.93,6.55 -12.5,12.91 -17.64,20.1 -0.26,0.37 0.3,0.75 0.6,0.46 6.46,-5.98 11.91,-13.29 17.62,-19.97 0.35,-0.41 -0.22,-0.99 -0.59,-0.59l0 0z"></path> <path class="fil1" d="M522.37 639.49c-3.1,2.13 -5.78,4.93 -8.55,7.47 -3.07,2.81 -6.38,5.54 -8.97,8.81 -0.16,0.2 0.04,0.55 0.29,0.38 3.13,-2.11 5.82,-4.85 8.58,-7.42 3.03,-2.83 6.39,-5.54 9.01,-8.78 0.2,-0.24 -0.06,-0.68 -0.36,-0.47l0 0z"></path> <path class="fil1" d="M534.49 641.84c-5.33,4.49 -11.1,8.76 -15.94,13.78 -0.41,0.42 0.15,1.22 0.65,0.84 5.57,-4.25 10.52,-9.49 15.63,-14.28 0.22,-0.21 -0.11,-0.52 -0.33,-0.33l0 0z"></path> <path class="fil1" d="M546.97 644.43c-6.09,5.76 -12.4,11.39 -17.99,17.66 -0.22,0.25 0.11,0.57 0.36,0.36 6.37,-5.47 12.11,-11.67 17.99,-17.65 0.23,-0.24 -0.12,-0.59 -0.36,-0.36l0 0z"></path> <path class="fil1" d="M558.42 649.95c-5.31,4.51 -11.03,8.81 -15.83,13.87 -0.2,0.21 0.07,0.6 0.33,0.42 5.68,-4.09 10.72,-9.19 15.93,-13.86 0.3,-0.26 -0.13,-0.67 -0.43,-0.43l0 0z"></path> <path class="fil1" d="M578.17 637.98c-6.11,7.14 -12.32,14.27 -17.77,21.94 -0.21,0.3 0.26,0.66 0.51,0.39 6.38,-6.9 12.09,-14.45 17.83,-21.89 0.25,-0.33 -0.3,-0.75 -0.56,-0.44l0 0z"></path> <path class="fil1" d="M18.89 880.21c69.97,11.1 139.97,21.97 209.94,33.08 1.2,0.19 1.71,-1.64 0.5,-1.83 -69.95,-11.08 -139.87,-22.41 -209.82,-33.5 -1.47,-0.23 -2.11,2.02 -0.62,2.26l0 0z"></path> <path class="fil1" d="M318.82 923.24c4.24,3.33 9.93,3.45 15.12,4.48 7.06,1.4 14.05,2.28 21.16,3.34 1.28,0.19 1.87,-1.67 0.55,-1.98 -6.93,-1.67 -13.74,-3.47 -20.76,-4.8 -5.24,-0.99 -10.71,-3.1 -15.93,-1.57 -0.21,0.07 -0.35,0.38 -0.14,0.54l0 0z"></path> <path class="fil1" d="M377.64 937.28c149.72,28.49 301.63,58.8 453.28,74.74 2.18,0.23 2.7,-3.46 0.52,-3.85 -150.62,-26.65 -302.45,-46.08 -453,-73.85 -1.93,-0.36 -2.76,2.59 -0.81,2.96l0 0z"></path> <path class="fil1" d="M206.89 1030.95c13.61,-7.56 27.46,-14.63 41.6,-21.13 15.79,-7.25 33.73,-12.08 48.96,-20.38 -7.92,4.32 -16.71,7.54 -24.92,11.24 -21.98,9.91 -43.87,20.02 -65.84,29.94 -0.25,0.11 -0.03,0.48 0.21,0.36 30.33,-13.7 60.75,-27.24 91.08,-40.96 0.39,-0.18 0.11,-0.83 -0.29,-0.69 -31.59,11.12 -61.82,24.85 -90.98,41.33 -0.19,0.11 -0.02,0.39 0.17,0.29z"></path> <path class="fil1" d="M211.63 1024.43c37.13,-15.15 75.28,-27.26 112.54,-41.84 18.49,-7.24 2.7,-1.57 -1.29,-0.09 -7.43,2.76 -14.85,5.53 -22.27,8.33 -29.66,11.15 -59.34,22.29 -89.06,33.29 -0.07,0.03 -0.04,0.15 0.03,0.12 40.42,-14.95 80.94,-29.63 121.4,-44.48 0.57,-0.21 0.34,-1.11 -0.26,-0.92 -41.16,12.99 -81.76,27.76 -121.29,45.12 -0.27,0.12 -0.07,0.59 0.2,0.48z"></path> <path class="fil1" d="M217.17 1016.68c34,-12.66 67.98,-25.36 101.95,-38.08 0.4,-0.15 0.23,-0.81 -0.18,-0.66 -33.98,12.72 -67.91,25.59 -101.88,38.32 -0.26,0.1 -0.15,0.52 0.12,0.42 24.79,-9.29 49.63,-18.45 74.42,-27.75 8.98,-3.37 18.72,-6.05 27.35,-10.27 -15.57,7.62 -34.61,12.27 -50.95,18.41 -16.98,6.38 -33.96,12.79 -50.93,19.2 -0.25,0.09 -0.14,0.5 0.11,0.4z"></path> <path class="fil1" d="M268.49 950.18c9.91,-3.42 19.72,-7.08 29.54,-10.76 0.75,-0.28 0.43,-1.5 -0.34,-1.22 -9.81,3.67 -19.66,7.58 -29.41,11.22 -0.48,0.18 -0.27,0.95 0.21,0.77 9.78,-3.65 19.72,-7.12 29.53,-10.78 -0.11,-0.41 -0.22,-0.81 -0.34,-1.22 -9.84,3.67 -19.66,7.33 -29.4,11.24 -0.44,0.18 -0.27,0.89 0.2,0.73z"></path> <path class="fil1" d="M287.01 938.54c4.58,-1.5 9.15,-3 13.72,-4.51 0.11,-0.04 0.06,-0.21 -0.05,-0.18 -4.57,1.51 -9.14,3.05 -13.71,4.57 -0.09,0.03 -0.05,0.17 0.04,0.14 3.36,-1.12 6.73,-2.19 10.09,-3.32 0.84,-0.28 1.68,-0.56 2.52,-0.84 0.32,-0.11 1.73,-0.42 0.59,-0.29 -2.1,0.24 -4.36,1.37 -6.38,2.04 -2.28,0.76 -4.56,1.53 -6.85,2.29 -0.07,0.02 -0.04,0.12 0.03,0.1z"></path> <path class="fil1" d="M273.75 944.45c5.37,-0.96 10.73,-1.91 16.1,-2.87 -0.07,-0.25 -0.13,-0.49 -0.2,-0.74 -5.35,0.95 -10.72,2.12 -16.03,3.12 -0.33,0.06 -0.19,0.57 0.14,0.51 5.19,-0.97 10.78,-1.86 16.1,-2.89 0.48,-0.1 0.28,-0.83 -0.2,-0.74 -5.34,1.04 -10.69,2.09 -16.03,3.14 -0.3,0.06 -0.18,0.52 0.13,0.46z"></path> <path class="fil1" d="M316.48 951.79c11.64,-4.47 23.3,-8.88 34.93,-13.38 0.4,-0.15 0.23,-0.82 -0.18,-0.66 -11.64,4.51 -23.23,9.14 -34.84,13.69 -0.38,0.15 -0.22,0.79 0.17,0.63 8.47,-3.33 17.02,-6.48 25.46,-9.89 2.79,-1.13 6.91,-1.95 9.33,-3.75 -1.81,-0.01 -3.51,0.42 -5.09,1.3 -1.24,0.5 -2.48,1 -3.73,1.51 -2.89,1.17 -5.79,2.34 -8.68,3.51 -5.8,2.33 -11.59,4.65 -17.38,6.98 -0.04,0.02 -0.02,0.07 0.02,0.06z"></path> <path class="fil1" d="M321.74 946.53c10.09,-6.87 21.15,-9.47 32.4,-13.43 -3.14,1.1 -6.22,2.42 -9.32,3.63 -7.77,3.02 -15.53,6.25 -23.27,9.27 -0.46,0.18 -0.26,0.93 0.21,0.75 10.86,-4.25 21.85,-8.36 32.73,-12.63 0.51,-0.2 0.51,-1.15 -0.14,-1.06 -12.19,1.57 -22.92,5.86 -32.78,13.16 -0.18,0.13 -0.01,0.44 0.18,0.3z"></path> <path class="fil1" d="M418.79 1035.99c29.41,-15.45 60.78,-26.93 90.14,-42.13 12.64,-6.54 1.88,-1.61 -0.83,-0.44 -6.05,2.6 -11.98,5.56 -17.95,8.34 -23.9,11.14 -47.75,22.45 -71.67,33.55 -0.33,0.15 -0.1,0.67 0.24,0.52 32.08,-14.89 64.3,-29.51 96.38,-44.42 0.66,-0.3 0.2,-1.29 -0.46,-1.02 -32.9,13.11 -65.08,27.89 -96.23,44.76 -0.52,0.28 -0.14,1.12 0.38,0.84z"></path> <path class="fil1" d="M422.32 1028.22c31.6,-12.76 62.6,-27.23 93.8,-40.95 0.45,-0.2 0.13,-0.91 -0.33,-0.71 -31.22,13.75 -62.39,27.62 -93.61,41.37 -0.29,0.13 -0.09,0.59 0.21,0.46 22.81,-10.04 45.67,-19.98 68.48,-30.01 7.97,-3.51 17.82,-6.25 25.1,-11.05 -12.17,8.03 -30.29,12.51 -43.88,18.5 -16.64,7.34 -33.42,14.43 -49.82,22.27 -0.08,0.04 -0.02,0.14 0.05,0.12z"></path> <path class="fil1" d="M418.71 1038.96c33.98,-13.57 67.02,-29.42 99.48,-46.26 0.51,-0.26 0.15,-1.06 -0.37,-0.81 -33.11,15.54 -66.09,31.34 -99.2,46.87 -0.17,0.08 -0.05,0.35 0.12,0.27 24.69,-11.58 49.5,-22.9 74.18,-34.48 6.17,-2.89 12.43,-5.65 18.53,-8.68 2.96,-1.47 13.51,-6.43 0.28,-0.82 -31.43,13.32 -61.82,29.89 -93.08,43.79 -0.08,0.04 -0.03,0.17 0.06,0.13z"></path> <path class="fil2" d="M179.62 206.16c0,-23.49 13.17,-18.93 13.17,-12.71 0,3.82 -0.69,6.49 -4.79,9.28 -1.84,1.25 -5.8,3.22 -8.37,3.43zm-3.63 -10.9c0,1.23 -1.89,13.54 0,15.44 2.04,2.04 21.34,-3.94 21.34,-16.34 0,-4.33 -4.09,-9.99 -8.17,-9.99 -8.71,0 -6.88,3.59 -10.44,4.54 0,-4.61 -0.89,-11.6 -1.99,-16.17 -0.59,-2.44 -0.21,-3.61 -2.55,-3.81 0,8.5 1.82,16.6 1.82,26.33z"></path> <path class="fil2" d="M177.35 267.9c0,-5.53 -0.28,-10.76 3.35,-15.27 6.43,-7.99 15.13,4.8 5.48,11.38 -2.24,1.53 -5.63,3.62 -8.82,3.89zm-4.09 -16.34l-0.48 16.36c0.02,3.77 0.07,4.44 2.02,4.78 1.91,0.33 4.66,-0.67 6.44,-1.36 21.15,-8.2 12.82,-25.23 5.18,-25.23 -7.25,0 -7.03,3.01 -9.99,4.99 0,-6.68 -1.72,-14.18 -3.18,-20.43 -2.81,0.23 -1.59,0.9 -1.39,3.63 0.18,2.43 0.34,3.54 0.5,5.89 0.26,3.78 0.89,7.16 0.89,11.37z"></path> <path class="fil2" d="M243.63 262c-5.45,0 -8.03,-10.54 -2.03,-17.92 1.7,-2.09 5.44,-4.33 7.93,-4.33 2.08,0 4.17,1.41 5.45,2.27 -2.09,3.12 -0.92,-0.31 -2.46,5.26 -1.09,3.95 -4.81,14.72 -8.89,14.72zm-9.53 -8.17c0,10.22 10.35,17.54 16.81,7.73 1.22,-1.85 3.05,-5.28 3.62,-7.73 0.07,0.08 0.16,0.11 0.19,0.26 0.03,0.15 0.15,0.21 0.19,0.26l1.68 2.4c0.85,1.14 1.32,1.72 2.36,2.64 2.41,2.13 8.74,4.84 8.74,1.7 0,-3.9 -1.79,-1.31 -6.24,-5.11 -2.11,-1.8 -4.83,-6.14 -3.63,-9.72 3.29,-9.75 -16.02,-15.13 -22.32,1.26 -0.49,1.27 -1.42,4.76 -1.42,6.3z"></path> <path class="fil2" d="M103.8 205.25c-9.95,0 -6.27,-22.24 5.9,-22.24 2.47,0 3.56,1.31 4.99,2.27 -0.81,1.21 -0.84,0.69 -1.43,2.21 -1.14,2.92 -4.61,17.77 -9.47,17.77zm-9.53 -9.08c0,14.38 11.6,16.41 16.33,9.07 1.25,-1.95 3.06,-5.19 3.64,-7.71l0.91 0c1.49,5.58 12.71,11.21 12.71,6.36 0,-2.79 -10.44,-3.44 -10.44,-13.17 0,-0.34 2.75,-4 -1.56,-7.98 -7.9,-7.3 -21.6,1.93 -21.6,13.42z"></path> <path class="fil2" d="M97.9 257.46c0,12.11 9.14,16.68 18.69,9.61 7.69,-5.7 5.12,-8.25 4.01,-8.25 -3.78,0 -2.74,3.55 -8.94,6.5 -13,6.18 -13.35,-19.21 -1.3,-22.19 2.44,-0.6 1.15,0.12 2.98,-1.11 -0.81,-1.21 -0.59,-1.44 -2.51,-1.23 -3.14,0.34 -6.4,2.08 -8.39,4.4 -2.42,2.83 -4.53,7.04 -4.53,12.27z"></path> <path class="fil2" d="M146.93 191.63c-3.25,0.76 -14.04,2.7 -16.8,4.54 0.58,2.16 1.03,1.8 3.11,1.36 1.51,-0.32 2.92,-0.64 4.51,-1 2.31,-0.53 7.13,-1.51 9.63,-1.72l1.37 13.61c0.2,2.07 0.45,2.28 1.81,3.19l1.8 -0.51c1.05,-4.37 -1.8,-11.36 -1.8,-16.74 1.84,0 5.92,-0.35 7.98,-0.64 3.35,-0.48 5.76,0.41 6.55,-2.53 -1.56,-2.32 -3.55,-1.69 -7.14,-1.23 -2.18,0.28 -6.04,1.18 -8.3,1.23 0,-2.82 -0.8,-7.13 -1.36,-9.53 -3.67,0.3 -1.36,2.3 -1.36,9.99z"></path> <path class="fil2" d="M245 190.72c0,14.33 10.29,17.01 19.6,9.61 4.03,-3.2 6.1,-7.8 2.65,-7.8 -2.38,0 -5.9,7.72 -12.71,7.72 -8.71,0 -8.32,-23.61 5.45,-23.61l0 -1.82c-9.51,0 -14.98,7.66 -14.98,15.89z"></path> <path class="fil2" d="M127.86 258.37c1.55,1.29 7.29,-0.67 9.41,-1.03 2.62,-0.44 5.35,-0.97 8.55,-1.44 3.02,-0.44 6.3,-0.69 8.95,-1.04 2.86,-0.38 7.59,0.64 7.59,-2.39 0,-2.91 -5.93,-1.46 -8.37,-1.11 -3.35,0.49 -6.6,0.89 -9.45,1.44l-13.25 3.1c-2.42,0.64 -3.24,0.14 -3.43,2.47z"></path> <path class="fil2" d="M181.44 226.14l0 1.82c2.39,0.51 5.45,-0.42 5.45,1.82 0,1.66 -2.87,2.49 -3.69,5.43 -2.24,7.99 10.44,4.46 11.46,2.75 0.89,-1.49 -0.05,-1.33 -0.05,-2.74 -3.69,-0.88 -1.73,-0.38 -7.26,0.91 0.65,-2.42 3.64,-3.3 2.94,-6.54 -0.79,-3.66 -5.9,-4.59 -8.85,-3.44z"></path> <path class="fil2" d="M266.79 174.83l0 0zm0 0c0.68,-2.53 4.5,-3.94 2.55,-7.51 -1.22,-2.22 -3.83,-2.7 -6.2,-2.54 -2.32,0.15 -1.28,-0.35 -2.25,0.97 0.69,2.58 0.19,0.59 5.45,1.82 -0.08,3.68 -6.96,6.51 -2.88,10.6 1.91,1.91 3.9,0.96 6.15,0.4 2.87,-0.72 4.22,-0.34 4.9,-3.27 -2.15,-3.2 -3.95,-0.77 -7.72,-0.45z"></path> <path class="fil2" d="M122.42 228.86c-0.09,4.02 -4.08,3.25 -4.08,8.17 0,5.08 8.28,2.84 10.48,1.85 3.49,-1.57 0.72,-4.12 -0.04,-4.12 -2.4,0 -3.85,1.15 -6.36,1.36 2.1,-3.14 3.18,-2.69 3.18,-6.81 0,-2.54 -4.25,-3.63 -7.26,-3.63 -1.6,0 -2.37,2.04 -0.15,2.46l4.23 0.72z"></path> <path class="fil2" d="M189.61 168.02c-0.19,2.29 -6.71,6.44 -3.25,10.06 2.69,2.81 10.97,-0.2 10.97,-2.34 0,-4.16 -4.75,-0.97 -7.72,-0.91 2.24,-3.34 3.18,-3.14 3.18,-5.9 0,-4.36 -7.77,-5.42 -8.79,-3.36 -0.33,0.66 0.01,0.99 0.78,1.31 1.87,0.77 2.26,-0.22 4.83,1.14z"></path> <path class="fil2" d="M258.16 226.59c0.57,2.15 0.86,1.56 2.25,1.63 2.02,0.1 2.05,0.02 3.65,1.09 -1.02,4.38 -4.09,2.15 -4.09,8.17 0,4.69 11.8,2.8 11.8,-0.91 0,-3.62 -5.69,-0.62 -7.72,-0.45 0.64,-2.41 3.18,-2.77 3.18,-5.9 0,-4.33 -6.9,-5.76 -9.08,-3.63z"></path> <path class="fil2" d="M125.14 168.02c-0.96,4.12 -4.09,2.56 -4.09,7.72 0,6.61 11.8,1.99 11.8,0.46 0,-1.23 -0.22,-1.25 -0.45,-2.27 -3.61,-0.84 -3.78,0.83 -7.26,0.91 0.58,-2.19 3.18,-2.81 3.18,-5.45 0,-5 -5.23,-4.54 -7.72,-4.54 -1.52,0 -2.43,1.71 -0.01,2.23 2.75,0.59 1.78,-0.52 4.55,0.95z"></path> <path class="fil2" d="M212.76 197.08c1.98,2.38 1.87,0.73 9.81,-1.09 4.43,-1.02 10.62,-0.96 10.62,-3.45 0,-4.25 -12.47,0.55 -16.75,1.86 -1.9,0.58 -3.14,0.66 -3.68,2.68z"></path> <path class="fil2" d="M212.76 185.28c1.55,2.31 4.3,0.98 10.12,0.14 2.19,-0.32 3.41,-0.39 5.66,-0.7 2.62,-0.36 2.64,-0.54 3.74,-2.62l-1.36 -1.82c-2.4,0.05 -11.22,2.1 -14.45,2.81 -2.27,0.49 -3.11,-0.08 -3.71,2.19z"></path> <path class="fil2" d="M210.49 245.2l0 2.27c2.16,0.5 11.71,-1.11 15.19,-1.61 2.69,-0.39 3.88,-0.22 3.88,-2.48 0,-0.88 -0.81,-1.82 -1.36,-1.82 -2.57,0 -16.1,2.86 -17.71,3.63z"></path> <path class="fil2" d="M210.49 257.91c0,3.33 6.26,-0.85 15.87,-1.84 4.77,-0.49 5.73,-4.07 1.84,-4.07 -1.87,0 -17.71,3.52 -17.71,5.9z"></path> <path class="fil2" d="M493.8 513.31c-0.73,-3.03 -1.87,-5.26 -2.96,-8.14l-9.55 -25.29c-2.12,-4.81 -0.07,-4.95 5.53,-17.03 1.52,-3.29 7.3,-15.19 7.52,-17.87 1.93,-0.14 2.89,0.25 4.84,0.46 4.67,0.5 10.77,0.4 16.08,-0.44 -7.02,11.59 -14.17,23.31 -20.74,35.34 -3.2,5.87 -9.66,15.1 -4.03,14.21 2.07,-0.32 9.46,-16.25 10.82,-18.94l17.8 -31.77c4.15,-0.65 6.8,-1.55 10.33,-2.85 3.16,-1.16 5.86,-2.82 8.93,-4.02 -0.61,2.39 -3.97,6.88 -5.4,9.2l-19.54 33.6c-4.31,7.94 -12.65,22.14 -16.14,29.31 -1.07,2.19 -1.2,3.23 -3.5,4.2zm-15.96 -42.08c-0.37,-4.34 -5.35,-12.81 -4.49,-15.36l2.91 -7.98c0.84,-2.65 2.05,-5.94 2.68,-8.74 6.26,2.33 3.54,1.96 13.21,5.09 -1.13,2.32 -2.24,4.25 -3.31,6.57 -1.05,2.29 -2.14,4.88 -3.32,7.1 -1.58,2.97 -5.52,11.55 -7.68,13.34zm83.65 -53.28c-0.67,3 -14.79,31.23 -17.79,37.28 -1.33,2.67 -2.43,4.68 -3.67,7.36l-7.53 15.12c-1.33,2.89 -2.39,4.62 -3.68,7.36l-25.12 52.56c-0.84,-3.46 -2.56,-6.78 -3.86,-9.85 -0.66,-1.56 -1.25,-3.15 -1.96,-4.89 -0.66,-1.61 -1.54,-3.53 -1.89,-4.97 2.71,-0.65 2.44,-1.43 4.64,-5.44l6.88 -13.45c1.25,-2.37 2.21,-4.4 3.56,-6.9l21.68 -40.06c2.45,-4.45 4.73,-8.91 7.26,-13.14 4.56,-7.64 2.28,-3.45 10.57,-10.34 3.99,-3.32 9.86,-9.78 10.89,-10.63zm0.55 -1.19l-0.55 1.19 0.55 -1.19zm0 0l0 0zm-94.65 2.17l47.88 -31.17 2.12 1.41c1.91,-0.88 3.21,-2.31 5.04,-3.08 2.02,2.69 6.25,4.4 9.19,6.43 5.65,3.92 23.39,16.72 26.58,20.98 -1.53,3.12 -4.25,5.66 -7.06,8.35 -7.93,7.6 -21.77,15.43 -32.56,17.12 -20.98,3.29 -30,1.22 -43.89,-10.32 -3.26,-2.71 -5.11,-5.97 -7.29,-9.73zm108.41 -31.84l-0.3 1.23 0.3 -1.23zm-119.42 15.96c0,-1.58 -0.32,1.31 1.16,-2.33 0.19,-0.46 0.26,-0.74 0.48,-1.25 0.05,-0.12 0.13,-0.29 0.18,-0.4l0.39 -0.77c0,32.56 18.16,36.75 18.16,39.53 0,2.52 -4.26,9.81 -4.95,12.88 -1.45,-0.83 -1.74,-2.98 -2.42,-4.91 -2.13,-6.13 -12.99,-39.38 -12.99,-42.75zm86.4 -71.32c11.84,-0.87 23.96,15.7 27.09,28.1 2.03,8.05 2.4,16.63 0.75,26.19 -0.72,4.16 -1.95,8.44 -3.43,11.96 -1.3,3.11 -3.52,8.81 -5.69,10.61 -1.26,-0.64 -12.7,-10.41 -18.64,-14.21 -4.13,-2.64 -16.55,-10.48 -21.54,-10.86l4.56 -13.21c1.7,-4.51 8.54,-21.6 10.95,-25.99 1.03,-1.87 5.57,-11.08 5.95,-12.59zm-74.29 34.2c0.05,-0.06 0.16,0.06 0.16,0.14l-0.16 -0.14zm107.31 21.16l1.26 -14.35 2.11 -5.92c1.88,-6 4.07,-12.55 5.3,-18.64 0.55,-2.73 2.12,-11.82 2.89,-13.53 1.8,0.14 3.46,0.55 5.07,0.74 2.04,0.25 3.76,0.4 5.39,0.92 -0.31,3.76 -8.43,20.26 -10.53,25.79 -0.66,1.74 -9.65,22.6 -11.48,24.99zm0.55 -25.95c-1.74,-1 -0.86,-1.25 -2.43,-6.54 -2.94,-9.91 -4.28,-3.8 -2.38,-13.47 0.48,-2.43 0.92,-6.01 1.51,-8.63 3.74,-0.28 8.08,1.7 12.11,1.41 -1.67,3.74 -2.88,9.3 -4.4,13.35 -0.78,2.09 -4.26,12.14 -4.4,13.9zm-20.36 -30.93c2.17,-0.29 5.44,0.33 7.5,0.68 1.97,0.33 5.43,0.98 7.36,0.84 -0.72,1.61 -2.59,7.82 -2.75,9.79 -1.31,-0.67 -4.56,-5.42 -8.66,-8.7 -1.27,-1.02 -2.52,-1.38 -3.45,-2.61zm0 0l0 0zm-89.7 86.69c-1.55,-6.41 -3.3,-8.55 -3.3,-17.64 0,-18.28 7.86,-30.28 16.35,-41.8 5.04,-6.83 21.42,-21.35 25.48,-21.99 1.83,-0.29 1.15,0.92 2.2,0.75 1.94,-0.3 2.96,-1.54 4.94,-2.44 6.33,-2.86 20.43,-4.7 25.88,-2.94l-11.71 26.44c-1.9,4.69 -3.56,9.21 -5.27,13.72 -0.98,2.59 -1.55,4.46 -2.5,7.25 -1.59,4.66 -2.16,3.09 -10.47,9.33l-35.54 25.06c-1.75,1.22 -4.19,3.46 -6.05,4.25zm-27.52 -72.18l0.16 0.14c-0.01,-0.01 -0.22,-0.08 -0.16,-0.14zm58.89 -8.67c0.47,-2.08 1.06,-4.51 1.53,-6.41 0.38,-1.53 1.31,-5.75 1.77,-6.76l19.61 2.63c0.1,0.03 0.3,0.09 0.38,0.11 0.08,0.02 0.26,0.06 0.37,0.12 -4.93,0.77 -8.83,2.4 -12.59,4.24l-11.07 6.07zm-4.4 0.14l0.55 3.22c-3.11,1.32 -14.27,12.16 -16.38,14.8l-8.38 11.09 13.6 -38.61c0.75,-2.02 1.63,-3.94 1.81,-6.18 1.58,0.51 11.69,1.97 13.76,1.7 -0.71,3.14 -4.95,11.35 -4.95,13.98zm-46.78 31.54c-1.48,-0.85 -0.62,0.53 -2.09,-4.74l-5.07 -16.7c1.14,-0.72 3.1,0.8 5.03,-5.11 1.85,-5.65 8.1,-22.15 8.17,-25.57l30.27 4.61 -11.64 27.06c-1.16,3 -2.53,6.48 -3.69,9.55 -3.13,8.25 -11.59,31.3 -13.29,38.87 -0.3,-0.38 -0.26,-0.24 -0.59,-0.97l-4.6 -16.14c-0.62,-2.08 -1.36,-3.6 -1.42,-6.06 2.77,-0.49 1.69,0.27 2.71,-1.56l7.35 -24.07c1.72,-4.53 3.17,-8.44 4.95,-12.89 1.22,-3.04 4.74,-10.91 4.8,-13.56 -2.1,0.51 -1.44,-0.16 -3.97,4.36 -3.4,6.07 -5.72,11.35 -8.22,17.83 -1.86,4.82 -8.38,20.9 -8.73,25.11zm-7.71 -24.11c-0.08,-0.1 -0.17,-0.4 -0.2,-0.32l-2.48 -6.49c-0.4,-1.13 -1.03,-2.44 -1.3,-3.51 -0.4,-1.61 0.09,-1.76 0.87,-3.84l5.31 -16.46c2.13,0.8 6.72,1.64 9.36,1.84 -0.15,1.85 -0.42,2.12 -1.11,3.46l-1.66 3.56c-1.01,2.37 -2.01,4.68 -3.05,7.33l-5.74 14.42zm-13.76 -33.61c4.46,-0.33 12.51,2.8 14.86,2.62 -3.26,5.37 -2.87,3.97 -5.69,10.61 -0.32,0.74 -0.61,1.42 -0.9,1.99l-1.11 1.81c-0.64,-2.67 -2.3,-6.14 -3.49,-8.62 -0.92,-1.91 -3.52,-6.71 -3.66,-8.42zm0 0l0 0zm74.84 237.02c0,1.49 0.26,1.48 0.55,2.67 4.37,0.47 4.36,-2.24 8.25,-10.65l67.7 -142.12c1.11,-2.43 1.89,-4.68 3.11,-7.28 4.2,-8.94 7.89,-19.06 11.58,-28.2 2.01,-4.97 3.81,-9.59 5.66,-14.49 0.89,-2.35 1.85,-4.87 2.66,-7.12 2.44,-6.75 3.94,-0.87 3.94,-6.57 0,-2.02 -3.67,-2.23 -5.43,-2.53l-48.19 -7c-18.81,-2.41 -37.04,-4.7 -55.78,-7.03l-54.87 -8.07c-2.64,-0.81 -3.56,-0.81 -6.66,-1.1 -6.29,-0.59 -3.47,0.39 -9.66,-1.08 -2.89,-0.69 -1.86,1.3 -1.66,1.92 0.17,0.53 1.05,2.26 1.38,2.95 4.17,8.53 7.44,19.19 10.61,28.45 3.04,8.85 4.85,17.77 7.59,26.99l11.2 40.42c1.38,4.68 2.63,8.89 4.04,13.49 1.3,4.26 2.46,8.59 3.99,13 5.37,15.5 11.64,36.62 17.49,51.31 7.36,18.48 14.01,37.39 21.93,55.53 0.16,0.38 1.19,2.54 1.28,2.92 0.53,2.27 -0.73,1.73 -0.73,3.6z"></path> <path class="fil2" d="M622.58 339.59l-3.3 0.52c0,-4.66 -0.39,-12.52 7.15,-14.33 3.27,5.67 -1.35,13.42 -3.85,13.81zm-9.91 -29.27c0,4.03 1.26,31.76 2.08,32.82 0.86,1.1 1.14,0.47 2.67,0.77l1.14 0.34c8.68,3.17 13.93,-7.95 13.93,-13.91 0,-4.19 -0.3,-10.41 -6.6,-9.42 -4.14,0.65 -5.82,3.13 -8.25,5.15l-1.77 -14.46c-0.43,-2.58 0.06,-3.21 -2.63,-3.01 -0.38,0.73 -0.55,0.67 -0.55,1.74z"></path> <path class="fil2" d="M507.01 563.52c0,17.9 24.21,8.41 24.21,1.71 0,-2.63 -2.83,-1.84 -4.52,-0.55 -2.06,1.58 -2.62,2.3 -5.38,3.25 -14.79,5.07 -9.86,-15.01 -1.11,-16.39 3.74,-0.59 1.51,1.59 4.95,0.32 -0.2,-8.81 -18.16,-1.19 -18.16,11.65z"></path> <path class="fil2" d="M416.21 298.73c-2.61,-4.53 -0.28,-10.96 2.2,-11.35 1.32,-0.21 1.62,0.64 2.75,1.22 -0.69,3.09 -2.82,8.37 -4.95,10.13zm-5.5 -2.44c0,2.79 0.69,5.61 2.75,6.73 5.14,2.79 9.58,-4.88 10.46,-8.79 2.45,1.26 2.22,2.95 6.05,2.35 1.06,-0.17 2.2,-1.33 2.2,-2 0,-3.84 -2.25,-1.98 -3.95,-4.24 -0.97,-1.3 -1.47,-5.92 -3.2,-5.65l-3.36 0.07c-7.72,-4.49 -10.95,5.67 -10.95,11.53z"></path> <path class="fil2" d="M493.8 380.13c-0.65,-2.33 -1.52,-3.14 -3.3,-3.33 -1.63,2.21 1.01,5.94 1.51,9.26 0.69,4.65 -0.1,5.48 1.96,7.09l0.94 0.57c1.23,-0.84 1.66,-1.18 2.75,-2.08 0,-3.59 -1.18,-8.81 4.01,-12.07 3.24,-2.04 5.9,1.15 5.9,-4.34 0,-3.08 -6.11,-1.87 -9.68,1.19 -1.91,1.64 -1.8,2.76 -4.07,3.72z"></path> <path class="fil2" d="M212.08 528.62c-2.48,0.33 -4.84,-0.36 -6.86,-0.57l0 -61.27 70.1 -9.24c-1.43,2.9 -4.63,7.13 -6.47,10.07l-24.27 33.83c-1.5,1.98 -2.04,2.76 -3.7,4.63 -2.5,2.82 -5.25,6.32 -7.87,8.86 -4.82,4.66 -12.6,12.59 -20.93,13.69zm-57.35 -55.18l46.08 -6.07 0 58.82c-2.98,-1.18 -4.77,-2.68 -7.24,-4.55 -1.34,-1.02 -2.07,-1.3 -3.43,-2.49l-15.38 -15.93c-8.48,-9.49 -13.78,-18.8 -20.03,-29.78zm168.63 -52.62c2.78,-2.23 1.47,-3.89 1.47,-7.55 10.08,-0.49 24.99,21.48 30.39,28.84l-31.37 4.14c-0.03,-1.49 -0.22,-1.76 -0.49,-2.88 -2.58,0.4 -2.45,0.31 -2.45,3.26l-36.27 5.27 13.34 -18.81c3.43,-4.39 6.35,-8.6 10.74,-12.73 3.05,-2.86 6.4,-6.79 11.7,-7.49 2.19,-0.29 -1.96,7.28 2.94,7.94zm-225.98 9.69c4.13,-0.55 1.96,-6.58 1.96,-12.51 13.43,-1.77 23.79,11.92 29.42,19.65 3.64,4.99 17.83,28.79 18.13,32.42l-94.61 12.47c0.57,-6.96 19.74,-41.55 25.38,-48.56 3.59,-4.48 4.72,-6.4 9.91,-10.51 5.66,-4.49 6.64,-3.5 9.32,-5.14 0,3.11 -3.07,12.66 0.49,12.19zm103.92 -72.03c0,2.8 -0.49,3.46 -0.49,6.44l0 98.04 -48.53 6.4c-0.76,-3.15 -9.48,-17.84 -11.77,-21.97 -7.35,-13.23 -21.69,-35.87 -40.19,-33.43 -0.54,-2.26 -0.94,-2.79 -0.98,-5.75 -0.02,-1.41 0.07,-1.87 -0.23,-3.18 -0.47,-2.04 0.1,-1.71 -1.74,-1.96 -1.14,0.98 -1.3,1.17 -1.47,5.59 -0.29,7.76 -0.68,2.84 -0.98,6.5 -15.3,2.36 -32.05,35.48 -37.91,47.97 -1.5,3.19 -2.98,6.52 -4.18,9.61l-3.99 10.26c-2.97,0.39 -5.78,0.64 -8.55,1.4 -3.54,0.97 -5.41,0.57 -7.14,2.62 2.03,2.51 11.47,0.45 14.22,0.09 -0.57,6.87 -6.98,15.7 -1.96,15.45 0.55,-2.45 3.71,-15.19 5.88,-15.48l44.61 -5.88c0,6.47 -1.84,11.78 0.98,14.09 1.79,-0.71 1.03,-0.65 2.45,-1.79 0,-4.98 -0.89,-8.71 -0.98,-12.62l51.47 -6.78c2.07,8.6 23.08,36.09 31.49,43.27 2.69,2.3 3.85,4.37 6.95,6.35 4.24,2.71 4.84,4.81 12.54,7.87l0 36.27c2.18,0.76 1.61,0.47 3.92,-0.03 1.36,-6.03 0.49,-26.92 0.49,-34.87 3.24,-0.16 1.9,0.73 8.33,-0.12 11.16,-1.47 23.29,-15.83 30.51,-24 5.1,-5.77 11.52,-14.02 15.71,-20.19l18.09 -26.94c0.89,-1.42 2.69,-4.86 4.31,-5.08l38.24 -5.04c0,1.62 -1.79,10.04 1.96,9.55 2.82,-0.37 1.96,-6.21 1.96,-10.06l32.84 -4.33c1.47,-0.19 2.77,2.69 3.53,3.85 1.06,1.62 1.69,3.13 2.75,4.73 1.08,1.63 1.74,2.95 2.71,4.78 1.23,2.3 1.52,4.37 3.76,4.08 5.86,-0.77 -3.76,-13.69 -6.37,-18.28 4.63,-0.61 12.25,-0.29 12.25,-4.07 0,-2.71 -3.77,-1.33 -6.58,-1.38 -2.73,-0.04 -5.77,0.56 -8.62,0.93l-7.55 -10.58c-5.62,-7.73 -14.85,-18.51 -24.15,-21.69 -1.07,-0.36 -2.66,-0.59 -3.41,-1.04 -1.53,-0.89 -0.61,-1.22 -2.15,-2.47 -1.98,0.79 -2.27,1.86 -3.3,2.53 -0.81,0.53 -3.07,1.06 -4.33,1.63 -7.85,3.6 -12.86,10.96 -17.99,16.73l-14.58 19.7c-0.93,1.36 -3.83,6.39 -5.39,6.59l-72.55 9.56c0,-13.48 0.5,-94.19 -0.33,-100.6 -0.41,-3.13 0.33,-2.11 -1.14,-4.1 -0.93,0.2 -1.72,0.43 -2.45,0.81z"></path> <path class="fil2" d="M218.94 365.47c0,-12.39 -7.97,-5.25 -8.33,-0.86 3.02,0.31 1.51,-0.05 3.92,-1.99 0.36,0.7 -0.36,11.51 8.33,5.76 0,4.61 -0.16,7.37 -1.27,11.15 -0.51,1.73 -1.12,2.97 -2.18,4.04 -1.03,1.04 -3.41,2.37 -3.41,-1.05 0,-2.1 4.48,-7.45 -0.49,-6.8 -4.26,0.56 -6.82,14.62 1.96,13.47 6.23,-0.82 9.8,-9.92 9.8,-16.49l-0.35 -11.86c-0.48,-3.76 1.08,-5.4 -2.59,-4.91 -3.89,0.51 0.05,7.37 -5.39,9.53z"></path> <path class="fil2" d="M382.17 455.22c0,1.87 -0.15,0.2 0.49,1.41 2.03,-0.81 1.52,-1.02 2.48,-2.75 2.15,-3.89 3.68,-3.43 5.66,-1.07 0.91,1.08 1.47,1.52 2.16,2.46 -1.46,2.38 -5.88,4.68 -5.88,7.64 0,3.63 6.13,-0.71 8.82,-5.08 1.69,0.91 8,6.43 10.32,5.04 5.48,-3.3 -4.52,-5.7 -6.89,-8.92 0.51,-0.82 6.45,-8.69 2.45,-8.17 -1.21,0.16 -2.38,1.83 -3.06,2.74 -1.41,1.88 -0.85,2.48 -3.31,3.01 -0.57,-2.07 -4.26,-4.83 -7.35,-4.42 -3.21,0.42 -5.88,5.06 -5.88,8.13z"></path> <path class="fil2" d="M218.45 483.67c-0.75,-3.1 -1.47,-1.42 -1.47,-6.67 0,-2.46 0.44,-2.25 0.49,-4.48 3.37,-0.94 5.88,-2.98 5.88,4.62 0,1.52 -0.51,3.32 -1.1,4.44 -0.95,1.8 -1.4,1.77 -3.8,2.09zm-5.39 -5.17c0,15.5 14.71,11.13 14.71,-2.43 0,-9.92 -7.12,-11.99 -11.3,-6.38 -1.92,2.57 -3.4,4.33 -3.4,8.81z"></path> <path class="fil2" d="M341.98 397.78c1.34,-2.96 -0.44,-4.79 3.43,-6.33 1.48,2.43 0,5.59 -3.43,6.33zm-4.41 -1.87c0,3.66 -0.09,8.76 6.38,6.07 10.03,-4.16 6.42,-16.09 1.95,-15.5 -1.26,0.17 -2.58,0.91 -3.43,1.43 0,-4.54 -1.31,-9.21 -1.47,-11.08l-1.96 0.26c-1.16,2.58 -0.26,10.39 -0.47,14.3 -0.16,2.89 -1,2.36 -1,4.53z"></path> <path class="fil2" d="M113.55 395.53c0,-7.22 0.04,-3.31 0.98,-7.48 1.29,0.13 1.44,0.26 2.45,0.66l-2.1 5.53c-0.66,1.03 -0.18,0.72 -1.33,1.3zm-4.41 -2.36c0,8.63 5.74,10.84 9.8,2.63 3.2,1.27 6.86,0.34 6.86,-2.38 0,-3.41 -3.24,0.05 -4.52,-2.73 -0.04,-0.09 -1.45,-7.27 -6.26,-6.64 -3.61,0.48 -5.88,5.5 -5.88,9.11z"></path> <path class="fil2" d="M320.9 486.34l2.45 -0.32c2.63,-5.31 0,-16.44 0,-21.57 -3.32,0.51 -2.36,0.89 -2.48,4.22 -0.08,2.26 -0.49,3.15 -0.47,5.96 0.05,6.05 -0.76,6.45 0.5,11.71z"></path> <path class="fil2" d="M320.9 434.87c0,3.62 -0.3,4.25 1.47,6.67 2.49,-0.91 2.17,-0.64 2.53,-3.2 0.24,-1.68 0.57,-2.87 0.3,-4.87 -0.31,-2.27 -0.49,-7.6 -1.35,-9.28 -2.47,0.53 -2.22,1.56 -2.47,4.23 -0.23,2.48 -0.47,3.51 -0.47,6.45z"></path> <path class="fil2" d="M319.92 374.21c5.65,0.61 4.15,-3.21 3.01,-13.71 -0.28,-2.55 0.54,-1.77 -1.05,-2.73 -1.6,1.38 -1.02,2.61 -1.56,7.47 -0.32,2.85 -0.4,5.47 -0.4,8.97z"></path> <path class="fil2" d="M96.39 450.25l-0.81 14.14c0.46,1.47 1.71,2.1 2.79,1.33 2.35,-1.68 0.89,-9.43 0.42,-12.81 -0.31,-2.25 -0.17,-2.78 -2.41,-2.67z"></path> <path class="fil2" d="M322.37 402.81c3.9,-0.51 2.34,-7.06 1.58,-11.11 -0.46,-2.43 0.56,-1.2 -1.09,-2.19 -2.28,0.91 -1.2,0.52 -2.12,6.99 -0.24,1.73 -1.02,6.66 1.62,6.31z"></path> <path class="fil2" d="M322.86 503.73c3.21,-0.42 2.01,-2.9 1.96,-6.13 -0.05,-3.18 0.15,-6.2 -1.47,-7.17 -1.73,0.69 -1.44,0.54 -1.8,2.84 -0.23,1.47 -0.1,2.66 -0.3,4.15 -0.24,1.89 -1.43,6.7 1.61,6.3z"></path> <path class="fil2" d="M320.41 382.48l0 4.41c0,2.44 3.92,2.05 3.92,-1.01 0,-4.37 -0.67,-7.02 -0.98,-10.65l-1.96 0.26c-0.66,1.45 -0.98,4.84 -0.98,6.99z"></path> <path class="fil2" d="M95.9 444.43c0,0.28 5.26,5.89 3.57,-7.97 -0.36,-3 0.78,-4.22 -1.61,-4.55 -1.96,1.7 -0.41,-0.06 -1.25,5.78 -0.37,2.58 -0.71,4.04 -0.71,6.73z"></path> <path class="fil2" d="M97.86 398.09c2.83,-0.37 2.45,-3.37 2.11,-5.79 -0.38,-2.69 0.3,-5.8 -0.64,-7.64 -1.77,0.38 -1.97,0.77 -2.3,2.41 -0.29,1.41 -0.08,2.76 -0.23,4.22 -0.16,1.56 -1.65,7.16 1.06,6.8z"></path> <path class="fil2" d="M95.41 524.89c0,2.49 -0.55,5.46 1.96,5.13 3.5,-0.46 0.49,-5.7 0.49,-12.32 -2.15,0.46 -1.74,0.48 -2.09,2.59 -0.23,1.36 -0.36,2.72 -0.36,4.59z"></path> <path class="fil2" d="M95.9 469.43c0,3.48 -0.55,6.93 2.45,6.54 2.3,-0.3 1.56,-2.83 1.05,-6.58 -0.34,-2.5 -0.28,-2.77 -3.01,-2.47 -0.26,1.13 -0.49,1.19 -0.49,2.52z"></path> <path class="fil2" d="M95.9 510.12c0,1.49 0.85,1.55 1.96,1.7 2.12,-1.83 1.62,-6.48 1.18,-8.68 -0.39,-1.95 -0.07,-2.07 -2.16,-1.97 -0.7,1.54 -0.98,6.57 -0.98,8.95z"></path> </g> </g> </svg> 